<svg xmlns="http://www.w3.org/2000/svg" width="1280" height="1280" viewBox="0 0 1280 1280">
<path d="M 813 277 L 698 277 L 216 755 L 511 758 L 688 584 L 751 647 L 367 1038 L 446 1037 L 576 907 L 817 903 L 995 735 L 997 575 L 886 464 L 840 507 L 933 600 L 933 710 L 804 840 L 664 837 L 850 651 L 687 483 L 475 692 L 377 691 L 736 334 L 791 335 L 845 385 L 882 346 Z" fill="#ffe600" stroke="none" />
<path d="M 759 380 L 752 384 L 750 384 L 746 388 L 746 389 L 742 393 L 742 394 L 740 396 L 740 398 L 738 400 L 738 405 L 737 406 L 737 417 L 738 418 L 738 421 L 739 422 L 742 429 L 752 439 L 754 439 L 757 441 L 760 441 L 761 442 L 765 442 L 766 443 L 769 443 L 770 442 L 774 442 L 775 441 L 778 441 L 781 439 L 783 439 L 786 436 L 787 436 L 793 430 L 793 429 L 797 422 L 797 420 L 798 419 L 798 404 L 797 403 L 797 400 L 796 399 L 796 397 L 793 393 L 793 392 L 785 384 L 783 384 L 776 380 Z" fill="#ffe600" stroke="none" />
<path d="M 688 202 L 648 220 L 418 449 L 469 499 L 700 274 L 811 274 L 884 349 L 843 388 L 790 336 L 736 336 L 379 691 L 476 689 L 687 481 L 852 651 L 666 837 L 804 838 L 931 711 L 931 599 L 838 505 L 1051 294 L 929 293 L 837 202 Z" fill="#0b63d4" stroke="none" />
<path d="M 750 648 L 688 586 L 511 760 L 421 761 L 147 1036 L 364 1037 Z" fill="#0b63d4" stroke="none" />
<path d="M 583 908 L 672 998 L 626 1045 L 861 1045 L 820 1002 L 743 1001 L 650 908 Z" fill="#0b63d4" stroke="none" />
</svg>